<svg id="Layer_1" data-name="Layer 1" xmlns="http://www.w3.org/2000/svg" viewBox="0 0 326.74 315.48"><title>button</title><g id="qEZlzf.tif"><path d="M66.11,148.75c.14-50.56,41.2-93.92,96.51-93.33C213,56,254.8,97,255.42,148.81a94.4,94.4,0,0,1-95.34,95.75C106.69,243.93,66.07,203.81,66.11,148.75Zm72.56,2.95a10.13,10.13,0,0,0,10.11-9.87,10.24,10.24,0,0,0-9.88-10.15,9.94,9.94,0,0,0-10.15,10.06A9.81,9.81,0,0,0,138.67,151.7Zm-.44,19.18a9.66,9.66,0,0,0,9.73,10c5.77,0,10.2-4.12,10.24-9.55,0-6.17-4.37-10.09-9.8-10.49S138.25,165.41,138.23,170.88Zm33.14-29.75a10,10,0,1,0-.07-20,9.79,9.79,0,0,0-9.75,10A9.68,9.68,0,0,0,171.37,141.13Zm19.56,19.33a10,10,0,1,0-20-.13,10,10,0,1,0,20,.13Z"/></g></svg>