<svg id="Layer_1" data-name="Layer 1" xmlns="http://www.w3.org/2000/svg" viewBox="0 0 1117.22 856.33"><defs><style>.cls-1{fill:#242425;}.cls-2{fill:#3a3a3c;}.cls-3{fill:#fefdfd;}.cls-4{fill:#fff;}</style></defs><title>SINGER</title><g id="x0GOs6.tif"><path class="cls-1" d="M806.23,264.46c-3.23,20.4-6.38,40.81-9.71,61.19-2.94,18-6.11,35.88-9.09,53.82-.38,2.27-.51,5.14-2.39,6.08-5.84,2.94-5.07,8.4-5.67,13.26-1.12,9.22-1,9.23-10.33,8.95-.68,0-1.35,0-2-.06-5.79-.52-13.22.92-16.91-2.13-3.48-2.89-.3-10.47-.2-16,0-.89.48-2.24.07-2.59-8.87-7.5-3.73-16.9-2.77-25.16,4.35-37.27,9.31-74.47,14.38-111.65,3.91-28.71,8.2-57.37,13.53-85.88,3.68-19.68,15-32.61,33-40.33,12.17-5.21,24.3-10.51,36.59-15.44C848,107.21,850,105.92,850,102,849.84,95.39,853,92.3,860,91.83a319,319,0,0,1,47.89.09c6.34.53,9.54,3.18,9.16,9.48-.24,4.08,1.54,5.66,5.28,7.12,14.63,5.7,29.16,11.67,43.16,18.87,14.25,7.33,22.49,18.91,25.78,34.28,4.52,21.1,7.86,42.41,10.73,63.79q9.42,70.14,18.31,140.36c.85,6.83,4.25,14-2.72,20.77-2.67,2.6-.18,9.06.67,13.7.79,4.33-.13,6.73-5.27,6.7-6.52,0-13,.45-19.56,1-3.5.29-4.81-.94-4.94-4.44a97.44,97.44,0,0,0-1.45-10.68c-.21-1.33-.08-3.29-.88-3.85-9.57-6.69-7.71-17.54-9.41-26.76-6.07-32.86-11.43-65.85-18-98.74.75,17.77,1.45,35.53,2.25,53.29,1.11,24.27,2.15,48.54,3.56,72.8.3,5.14-1.11,6.4-6.2,6.38-50-.19-100-.12-150-.09-3.32,0-6.16.38-5.9-4.69,2-37.73,3.76-75.47,5.6-113.21,2-7.17.76-14.37-.31-21.68ZM917.16,111.83l-.69-.23.53.39c.38.77.56,1.83,1.18,2.26,8,5.56,15.55,11.94,21.39,19.49,14.06,18.18,18.81,39.76,19.36,62.33.36,14.61-1,29.38.54,43.84,2.26,20.71,8.18,40.9,10.82,61.67.67,5.26,2.29,10.45,3,16,2.39,19.7,6.87,39.14,9.77,58.8.86,5.81,3.3,7.24,8.24,7,7.61-.45,15.21-.89,22.81-1.4,3.46-.23,4.48-1.9,3.78-5.45-1-5.25-1.43-10.62-2.11-15.93-2.14-16.61-4.37-33.21-6.4-49.83-2-16.14-4.46-32.23-6.35-48.36-2.3-19.71-6.33-39.17-8.19-58.92-1.15-12.25-5-23.92-6.49-36.17-1.66-14-7.18-26.86-20.92-34.18-3.08-1.65-7.07-2.09-9.34-3.83-9.46-7.24-21.07-9.45-31.31-14.73C923.8,113,920.74,111.37,917.16,111.83Zm38.78,161.05c-.76-13.43-1.71-28-.72-42.64a246.1,246.1,0,0,0-1.76-51.12c-3.3-23.45-13-43.2-32.7-57.38-5.11-3.67-7.71-3.8-10.41,2.8-5.06,12.4-5.48,12.22-13.73,1.87-1-1.32-1.84-3.49-4.11-2.52-1.86.79-1.1,2.75-1.1,4.21-.06,12.37-.47,24.76.12,37.11.36,7.6-4.36,5.95-8.66,6.36-4.87.47-6.77-.9-6.59-6.21.4-12.13.17-24.28.11-36.43,0-1.86.89-4.34-1.86-5.14s-3.29,1.82-4.48,3.25c-1.59,1.88-2.94,4-4.35,6-2.33,3.34-4.11,2.79-5.64-.68s-3.48-6.83-4.68-10.43c-1.39-4.14-3.37-3.74-6.41-1.84A72.62,72.62,0,0,0,829.4,138.4c-14.4,19.2-17.19,41.66-17.68,64.52-.56,26.06.77,52.13-.66,78.21-1.94,35.24-3.19,70.52-4.92,105.78-.21,4.28.63,5.75,5.31,5.73q72.25-.27,144.52,0c4.17,0,5.31-1.05,5.08-5.36C959.09,349.54,956.76,311.83,955.94,272.88ZM772.65,383.37c7.29.11,10.74-1.9,11.58-9.59.66-6,2.26-11.85,3.19-17.81,4-25.77,8.3-51.5,12.52-77.25,3.34-20.32,8.79-40.34,6.52-61.35-1.49-13.68,2.08-27.13,3.77-40.64,3.22-25.89,15.09-46.33,37.73-60,1.09-.66,2.83-1.08,2.26-2.82s-2.21-2.11-3.91-1.63a33.43,33.43,0,0,0-4.46,1.51q-17.13,7.47-34.23,15c-13.83,6.07-22.8,16.13-26.76,30.93-1.87,7-1.86,14.3-3.73,21a255.22,255.22,0,0,0-5.87,28.59c-2.89,18.29-5.11,36.69-7.55,55-2.52,19-4.93,38.05-7.48,57.07-2.1,15.68-2.7,31.55-6,47.08-.42,1.95-.36,4-.71,6-.88,5,1.94,6.94,6.29,7.39C761.11,382.47,766.46,382.85,772.65,383.37ZM908,96.15c-14.35-1.39-28.47-3.31-42.69-.48-1.65.33-4-.67-4.63,1.66s1.52,3.5,2.86,4.93c1.77,1.87,4.1,1.55,6.32,1.56,8.54,0,17.11-.43,25.62.14C901.79,104.39,905.6,102.1,908,96.15ZM764.23,387.41c-11.42,0-11.3,0-10.78,11.4.15,3.34,1.08,4.95,4.65,4.81,4.24-.18,8.5,0,12.75,0,1.52,0,3,.12,4-1.68,4.44-8.47.92-14.45-8.59-14.5Zm238.92,0c-2.6,0-4.64.17-6.64,0-4.38-.44-5.33,1.79-5.14,5.63.5,10,1.06,10.63,11.39,10.57h1.35c10.44-.14,12.14-2.74,9.14-12.7C1011.21,384.16,1006,389,1003.15,387.44Zm-115.49-240h0c0-5.84.12-11.68-.09-17.51-.05-1.28,1.54-5.1-2.45-3.22-1.91.9-6.06-3.3-5.85,2.89.39,11.44.23,22.9,0,34.35-.07,3.53,1.56,3.91,4.44,4.1,3.6.23,4-1.53,3.94-4.44C887.55,158.24,887.66,152.85,887.66,147.46Zm-13.28-29.57c-7.23-5.19-14.55-10-20.12-19.13-1.71,9.32,2.47,15.49,5.16,21.73,2.8,6.48,5.05,6.42,9.83.82C870.61,119.71,872.44,119.05,874.38,117.89Zm38.86-16.38c-7.66,6-12.31,12.66-19.77,16.1,3.51,2.13,5.4,5.12,7.44,8,1.09,1.52,3,3.55,4.07,1.31C908.6,119.45,912.09,111.84,913.24,101.51Zm-44.92,6.75c5.16,5.51,12.48,6.74,15.46,15,2.48-8.51,10.25-9.32,14.63-15Z"/><path class="cls-1" d="M623.83,262.83q1.67,37.41,3.34,74.83c.8,17.76,1.49,35.52,2.47,53.27.21,3.86-.79,5-4.74,5q-76-.19-152,0c-5.54,0-4.91-2.71-4.74-6.31q2.78-59.67,5.39-119.35a62.85,62.85,0,0,0-.56-11.84Q464,312.22,455,366c-.82,4.88-1.69,9.74-2.64,14.59-.3,1.51-.51,3.75-1.51,4.32-7.3,4.09-5.68,11.45-6.58,17.71-.6,4.16-1.82,5.93-6.33,5.42a174.92,174.92,0,0,0-18.87-1.06c-4.34,0-5.49-1.78-4.82-5.75.49-2.87.57-5.82.84-8.73.3-3.29,1.25-6.48-2.7-8.82-2.51-1.48-2.09-4.69-1.74-7.46,6.16-49.06,12-98.15,19.27-147.07,3-20.44,6.51-40.8,9.79-61.2,3.36-20.94,14-35.53,33.46-43.83,11.77-5,23.54-10,35.28-15.14A39.19,39.19,0,0,1,524.86,106c16.66.23,33.33.21,50,0A29.33,29.33,0,0,1,586.7,108c14.29,6,28.63,11.77,42.59,18.56,16.73,8.14,25,21.74,28.22,39.38,11.06,60.61,18.54,121.72,25.91,182.85,1,8,2,16,3.09,24.06.66,4.7,1.82,9.13-3.27,12.67-2.67,1.86-.74,5.5-.41,8.3,1.5,12.86,1.55,13-11,13.53-5.58.26-12.33,2.72-16.43-.29s-2.1-10.09-3.25-15.32c-.24-1.08-.14-2.78-.79-3.14-9-5-7.12-14.41-8.52-22.11-6.32-34.62-12.07-69.34-18-104ZM548.35,392.54H615.2c11.76,0,11.59,0,10.81-12-3-46.67-4.86-93.4-5.79-140.15-.35-17.7,1.44-35.4-.39-53.16-2.38-23-9.62-43.75-25.68-60.85-5.25-5.59-5.43-5.47-8.48,1.38-5.76,12.91-13.31,24.27-25.31,32.49-7.94,5.44-15.12,5.37-22.92.08-10.37-7-17.74-16.48-23.12-27.56-6.26-12.91-6.41-12.89-15.71-1-17.15,21.87-21.52,47.51-22,74.2-.23,13.68,1.17,27.4.75,41.07-1.47,46.51-2.91,93-6.2,139.46-.39,5.42,1.43,6.23,6.26,6.18C501.08,392.41,524.72,392.54,548.35,392.54Zm113-9.18c4,.84,9,0,13.09-1.73,2.92-1.26,9.54.54,8.72-6.27-.55-4.66-1.42-9.27-2-13.92-2-15.95-4-31.91-6-47.86-2.43-19.05-4.77-38.11-7.46-57.12-1.41-10-4.34-19.86-5-29.9a286.63,286.63,0,0,0-3.95-29.72c-1.7-9.82-3.27-19.68-5.25-29.45-2.26-11.2-5.3-22.21-14.89-29.71-13.33-10.43-29.39-15.44-44.7-21.91-1.14-.48-2.6-1.56-3.48.21-.69,1.41.18,2.6,1.37,3.44,2.89,2,6.88,3.42,8.53,6.19,6.11,10.3,14,19.79,17.44,31.39,6.36,21.14,8.34,43,7,64.9a90.72,90.72,0,0,0,1.43,22.46c3.83,20.75,6.63,41.69,10.15,62.51,3.69,21.79,7.89,43.5,11.6,65.29C649.88,383.37,649.61,383.41,661.35,383.36Zm-223.71.05c4.86,0,10.43,1.32,11.6-5.84,1.08-6.61,2-13.25,2.89-19.89,1.82-13.86,4.53-27.6,6.9-41.35,2.65-15.36,4.37-30.94,8.1-46.06,1.83-7.39-.59-14.9,3-22.35,2.65-5.54,4.32-12.47,3.42-18.95-3.06-22-.83-43.9,4.07-65.09a82.34,82.34,0,0,1,26-43.37c1.27-1.11,4.64-1.67,3-4.31-1.86-3-4.45-.9-6.48.23-3,1.66-6.18,3.19-7.42,6.79-6.36-3.17-11,1.74-16,3.85-16.27,6.92-28.52,18-31.94,36.21-1.61,8.58-2.68,17.24-4.72,25.76-1.71,7.16-2.2,14.57-3.32,21.83-3.76,24.49-7.64,48.95-10.37,73.59-1.84,16.63-4.41,33.18-6.57,49.78-1.83,14.16-3.52,28.34-5.3,42.51-.43,3.39,1,5,4.4,5.26C425.15,382.41,431.39,382.94,437.64,383.41ZM549,109.31H523.37c-2.1,0-4.36-.22-3,3.13,5.42,13.61,11.43,26.77,23.34,36.28,3.64,2.9,6.39,2.89,10.05.11,12.2-9.25,17.92-22.62,23.54-36.1,1.53-3.66-1.07-3.44-3.41-3.43C565.56,109.3,557.25,109.29,549,109.31Zm1.13,51.05c4.13.18,7-2.5,9.91-4.9,12.67-10.55,21.56-23.5,25.29-39.8.37-1.61,2.47-2.82-.29-4.13s-2.46.91-3.33,2.43c-7.07,12.28-11.22,26.3-23.09,35.71-8.21,6.51-10.66,7.1-19,.41-10.91-8.75-16.62-20.78-21.65-33.33-.71-1.78-.38-5.34-3.76-4.46s-2.34,3.55-1.51,6c3.2,9.55,7.42,18.66,13.79,26.42C532.61,152.26,539.66,159,550.08,160.36ZM431.2,387.42c-11.93-.05-13.83,1.72-12.91,11.18.34,3.55,2.48,5.09,5.24,4.78,5.44-.61,12.89,3.51,16-2.28C445.08,390.76,442.48,387.47,431.2,387.42Zm235.45,16.16c1.41,0,2.31,0,3.2,0,8.41-.18,11.93-5.61,8.67-13.36a4,4,0,0,0-4.08-2.82c-2.46.08-4.93,0-7.39,0-10.2.2-11,1.63-9.63,11.31C658.46,405.86,663.52,402.83,666.65,403.58Z"/><path class="cls-1" d="M289.49,274c1.87,39.09,3.67,78.19,5.7,117.28.3,5.85-3.42,4.61-6.6,4.61q-67.57,0-135.15,0c-4.95,0-9.93-.25-14.86.08-4.44.29-5.8-1.17-5.55-5.69,1.33-23.81,2.39-47.64,3.48-71.46.88-19.28,1.67-38.56,1.28-58q-4.24,25.49-8.5,51-5.61,33.56-11.27,67.1c-.6,3.53-1.63,6.55-5.21,8.87s-2.63,7.39-2.8,11.23c-.3,7.29-3.06,10.32-10.67,8.88A74.65,74.65,0,0,0,84.53,407c-4.52.06-5.87-1.73-5.29-6.06.87-6.61,3.57-13.46-2.75-19.32-1.14-1.06-.53-4.33-.26-6.52,4.23-34.36,8.29-68.74,12.9-103,3.94-29.39,8.43-58.71,12.92-88,1.4-9.08,3.25-18.13,5.52-27,4.27-16.69,16.28-26.4,31.29-33,11.5-5.08,23.1-9.94,34.65-14.91a37.56,37.56,0,0,1,15.72-3c16.89.24,33.79.13,50.68,0a30.13,30.13,0,0,1,11.87,1.89c15.17,6.19,30.39,12.26,45,19.82,15.27,7.93,22.66,21,25.83,37.36,7.31,37.75,12.28,75.85,17.35,113.93,4,30.3,7.8,60.63,11.51,91,.68,5.51,2.53,10.84-3,16.18-3,2.85-.5,9.49.15,14.28s-.39,6.55-5.31,6.51a94.49,94.49,0,0,0-16.83,1c-6.41,1.11-7.51-2.16-8-7.25-.6-5.74.19-11.86-6.23-15.84-2.87-1.79-2.29-6.64-2.9-10.13q-9.07-52.1-17.87-104.26a23.6,23.6,0,0,1-.08-3.37c.37-2.68-.78-4.79-2.79-8C288.67,265,287.58,269.54,289.49,274Zm-3.12,6.61h-.48c0-6.07.3-12.16-.05-18.2-1.51-26.26,2-52.57-1.24-78.84-2.73-22.1-10.52-41.63-25.94-57.91-3.11-3.29-5.1-4.79-9.17,0-16.5,19.45-52,20-69.74,1.59-6.08-6.29-6.1-6.3-12.34.34-.92,1-1.76,2.05-2.6,3.09-14.4,17.8-20.37,38.6-22.26,61-1.41,16.66.3,33.26.06,49.88-.7,48.34-3.45,96.61-5.94,144.89-.24,4.54.36,6.23,5.45,6.21q71.92-.29,143.85,0c4.35,0,5.75-.93,5.51-5.6C289.61,351.54,288,316.05,286.37,280.56ZM326,383.36c4.47,1,9.43-1.75,14.59-1.29,6.33.57,8.06-2.8,7.39-8.18-2.56-20.78-5.07-41.56-7.9-62.3-2.09-15.26-4.43-30.51-6.46-45.76-2.33-17.48-4.68-35-6.66-52.48-.58-5.07-5.18-8.48-3.84-13.58.89-3.38.43-6.57-.09-10a228.93,228.93,0,0,0-8.48-37c-2.83-8.56-8.35-14.31-15.17-19-11.27-7.78-25.1-10.38-36.9-17.24-1.39-.81-3.4-1.24-4.23.36-.92,1.76.53,3.51,1.83,4.69,16.93,15.36,24.23,35.6,28.05,57.2.8,4.52,2.51,9,2.31,14-.67,16.54-1.64,33.26.06,49.65,1.89,18.37,6.48,36.47,9.36,54.79,4,25.36,8.83,50.58,13.16,75.88C314.75,383.36,314.57,383.39,326,383.36Zm-223.92,0c10.37,0,11.48-.19,13.1-10.77,2.53-16.48,5.61-32.84,8.41-49.27,3.55-20.78,6.74-41.63,10.26-62.42,2-11.81,5.13-23.57,4.82-35.83a405.35,405.35,0,0,1,1.09-47,78.22,78.22,0,0,1,6.81-25.2c5.48-11.93,11.84-24.08,22.69-32.67,1.56-1.24,3.72-2.74,2.09-4.82-1.37-1.76-3.33.1-4.84.84-9.42,4.6-18.9,9.44-28.47,13.31-15.86,6.41-23.9,17.51-27.81,33.11-2.17,8.69-3.46,17.52-4.83,26.35-2.84,18.19-6.35,36.29-8.52,54.56-2.74,23.06-6.21,46-8.84,69.11-2.44,21.49-5.26,43-8.06,64.46-.32,2.43-.06,2.5,2.27,3.21C89.37,382.48,96.64,382.9,102.06,383.36ZM214.45,109.29c-8.74,0-17.49.14-26.22-.06-3.63-.08-4.37,1.15-3.09,4.31a19,19,0,0,0,4.12,6.06c11.89,12.45,38.54,12.14,50.06-.62a22.59,22.59,0,0,0,3.16-4.32c1.81-3.34,2.28-5.71-3.15-5.46C231.05,109.57,222.75,109.3,214.45,109.29Zm34.7,1.63c-7.65,14.71-19.28,21-35.45,21.56-16.66.55-27.35-6.72-34.36-21.35-2.88,3.83-1.81,7.24.39,9.72,6.75,7.58,14.57,13.94,25.08,15.21a64.07,64.07,0,0,0,16.83,0c10.18-1.49,19.58-5.24,26.05-13.83C250,119.16,252.18,115.57,249.15,110.92ZM332.43,403.6c12.65-.05,12.82-.23,11.56-12.22,0-.45,0-.9-.06-1.34a2.3,2.3,0,0,0-2.54-2.44c-5.12,0-10.25-.23-15.36,0-2.47.11-4.84,1-4.89,4.33C321,401.64,322.88,403.64,332.43,403.6ZM93,387.58c-8.12-.21-9.93,1.41-9.69,9.2.19,6.31,5.15,6.37,9.65,6.78,1.55.14,3.15-.11,4.7.08,5.87.71,7.85-2.4,8.54-7.71.74-5.77-2.56-7.56-7.16-8.3A39.25,39.25,0,0,0,93,387.58Z"/><path class="cls-1" d="M883.33,755c-24.77,0-49.55-.17-74.32.12-5.52.07-6.62-1.53-6.4-6.88,2-48.77,4.54-97.52,5.45-146.33.09-4.6-1.07-6.67-5.73-7.84-10.44-2.63-20.69-6-31.05-9-2.58-.74-4.55-1.29-3.9-4.87q4.88-26.84,10.15-53.59c4.49-22.58,17.83-37.13,38.21-46.23,9.43-4.2,18.8-8.56,28.35-12.47,3.65-1.5,6-3.09,6.08-7.48.06-5.66,2.46-8.43,9-8.84a366.21,366.21,0,0,1,49.91.1c5.64.41,7.94,2.88,7.81,7.62-.15,5.29,2.51,7.24,6.93,8.9a352.43,352.43,0,0,1,33.13,14.93c19,9.5,29.34,25.1,33.19,45.52,3.11,16.54,6.19,33.09,9.38,49.62.74,3.87.18,6-4.33,7.13-10.23,2.53-20.22,6-30.43,8.64-4.45,1.15-6,2.94-5.81,7.74,2,47.64,3.66,95.3,5.43,143,.38,10.23.36,10.24-10.1,10.24Zm47.26-275.77h0a29.14,29.14,0,0,0,1.27,7.77c2.84,9.92,9.28,18.06,12.74,27.75A265.44,265.44,0,0,1,955.47,554,254.25,254.25,0,0,1,959,586.42c.14,2.53.21,5.13,4.18,4,8.77-2.54,17.54-5.11,26.42-7.23,4.92-1.18,6.74-3.5,5.56-8.5-3.7-15.56-6.44-31.32-9.33-47-1.69-9.25-4.89-18.53-11.16-25.42-5.2-5.72-11-11.47-18.46-14.83-8.13-3.66-16.11-7.62-24.17-11.41-1.43-.67-3.19-1.39-3.84.86C927.7,478.6,929.14,479.06,930.59,479.23Zm-79.79-8.44c-13.18,21.57-25.6,42.42-31,66.67a392,392,0,0,0-8.76,74.83c-1.17,44.51-3.12,89-5,133.49-.19,4.67.85,6,5.71,6q71.6-.29,143.2,0c5.07,0,6.41-1.28,6.11-6.47-1.38-23.8-2.06-47.64-3.39-71.44-2.06-37-.23-74.16-5.42-111.1-4.71-33.43-16.83-63.52-36.07-91.5-2,4.64-3.84,9-5.83,13.21-5.6,11.93-5.62,11.91-13.85,1.53-.94-1.18-1.55-3-3.52-2.62-2.67.57-1.6,2.89-1.61,4.45-.1,11.92-.28,23.85,0,35.77.14,5.16-.62,7.91-6.8,7.47-5-.36-8.93.39-8.35-7.1.8-10.29.36-20.68.1-31-.07-3.12,2.07-7.85-1.53-9.12-4.29-1.52-4.8,4.23-7.3,6.45a6.2,6.2,0,0,0-1.29,1.55c-3.17,5.45-5,3.24-6.84-1C856.81,484.43,854,478.16,850.8,470.79ZM841.31,478c.26-4.81-2.23-3.78-4.32-2.87-7.72,3.39-15.17,7.51-22.85,10.76-15.16,6.41-24.52,17.48-29.6,32.38-6.49,19.07-9.12,39.05-12.6,58.82-.52,3,.2,4.13,2.83,4.88,9.47,2.67,19,5.32,28.38,8.2,3.11,1,4.19.54,4.64-3,2.09-16.58,4.24-33.13,7.82-49.51s10.42-31.54,18.23-46.27C836.33,486.68,839,482.08,841.31,478ZM884.59,455c-5.61,0-11.21,0-16.82,0-2.44,0-5.7-.3-5.76,3s1.9,6.25,5.59,6.29c11,.1,22.11.09,33.14-.43,3.1-.15,6.1-3.14,6.06-6.17,0-2.67-3.61-2.67-6.07-2.69C895.35,454.92,890,455,884.59,455Zm-5.08,51.56h0c0,5.61.19,11.23-.07,16.83-.17,3.59,1.14,4.53,4.61,4.58,3.86.05,3.7-2.08,3.68-4.71,0-11,0-22,0-33,0-2.5.47-4.45-3.73-4.07-3.43.31-4.68.58-4.49,4.21C879.71,495.72,879.51,501.12,879.51,506.51Zm-16.42-17.66c1.26-6.08,6.37-7.9,11.18-11.36-8.36-3.73-12.49-11.11-18.58-16.88C853.65,469,855.56,476.18,863.09,488.85Zm4.92-21.2c3.69,3.92,8.4,4.92,10.48,7.87,4.15,5.89,6.41,5.24,10.3-.11,2.2-3,7.28-3.48,9.4-7.76Zm44.73-7.85c-4.18,6.14-9.82,9.91-15,14.19-1.74,1.45-3.12,3-1.55,5,2,2.55,2.84,6.37,6.8,6.88,3,.38,3.77-2,4.42-4.1.8-2.66.52-6.18,2.18-7.94C913.53,469.69,913.2,465.18,912.74,459.8Z"/><path class="cls-1" d="M549.45,755c-25.23,0-50.46-.11-75.69.1-4.73,0-6-1.15-5.76-6,2-48.11,3.53-96.23,5.57-144.34.29-6.79-1.31-9.84-8.33-11.31-9.85-2.06-19.35-5.76-29.09-8.45-3.06-.84-3.85-2-3.32-5.15,3.46-20.83,6.78-41.68,12.42-62.07,4.82-17.4,17.16-28,32.52-35.82,11.22-5.7,22.75-10.71,34.47-15.29a22.44,22.44,0,0,1,8.53-1.57c16.44.09,32.89.32,49.33,0a51.3,51.3,0,0,1,22.82,4.56c10.64,4.8,21.35,9.4,31.63,15,15.57,8.48,25.2,21.09,29.28,38.37,4.39,18.6,7.74,37.37,10.88,56.21.63,3.75-.28,5.13-3.91,6.1-10.2,2.72-20.22,6.11-30.43,8.75-4.62,1.2-6.47,2.94-6.25,8.11,1.67,40.69,3,81.4,4.45,122.1.29,8.32.21,16.68,1.1,24.94.56,5.24-1.41,6-5.88,5.92C599,754.92,574.23,755,549.45,755ZM510.24,481c-2.37,3.83-4,6.51-5.66,9.15-19.93,31.71-26.09,67.49-27.6,103.7-2.1,50.54-3,101.15-5.82,151.68-.29,5.22,1.24,6.28,6.2,6.26,46.6-.18,93.21-.1,139.82-.11,9.48,0,9.56,0,9-9.82q-2.76-51.54-4.18-103.13c-.82-31.44-1.14-62.89-7.74-93.93-4.83-22.7-13.8-43.35-26.89-63.71-3.89,9.41-7.45,17.94-13.38,25-19.73,23.48-30.34,23.72-50.28.19C517.79,499.2,514.22,490.67,510.24,481ZM469.92,590.65c4,1.17,3.71-1.6,3.83-4.12.8-16.65,2-33.26,7.07-49.27,2.29-7.26,2.84-15.4,6.21-21.8,5.67-10.77,10.46-22.06,17-32.45,1.38-2.21,5.62-5,2.78-8.08s-3.59,3-6.29,2.75a3.11,3.11,0,0,0-.66.1c-12.14,1.63-21.64,9.05-31.85,14.78-13.67,7.66-17.31,21.8-21.13,35.44-2,7-2.17,14.57-3.75,21.44-2.09,9.09-3.54,18.27-5.37,27.39-.49,2.41-.79,4.37,2.3,5.24C450,584.87,460,587.78,469.92,590.65Zm172.81-4.56c3.89-1,7.73-2.4,11.67-2.79,6.26-.63,6.36-4.5,5.68-9.12-.22-1.53-2.06-2.17-1.91-4.11.86-11.07-3.43-21.38-5.31-32-1.94-10.92-3.11-22.13-11-31.58-3.71-4.44-6.63-9.14-11.46-12.91-9.14-7.14-20.33-10.07-29.93-16.15-2.31-1.47-6.12-4.59-8.32-2.3-2.49,2.58.63,6.15,2.08,9.1a4,4,0,0,0,.4.54c9.89,15.34,18.43,31.68,21.78,49.45,3.21,17,7.94,34,7.39,51.68-.13,4.15.06,6.35,5.63,3.92A52.35,52.35,0,0,1,642.73,586.09Zm-64.37-117.7c-19.06,0-37.22,0-55.38,0-1.94,0-3.93,0-2.8,2.82,5.59,14,11.72,27.71,24.26,37.23,2.85,2.17,5.57,2.36,8.55.09C566.27,498.43,572.72,484.16,578.36,468.39Zm-29.3,52.8c2.79-1.4,5.5-2.5,8-4,15.5-9.56,22.64-24.93,28.37-41.22.72-2,2.66-4.76-1.26-6-3.64-1.14-3.39,2.08-4.07,3.88-3.91,10.34-8.38,20.48-15.84,28.7-13.56,14.92-16.79,15.45-30.6.18-7.77-8.59-12.38-19.14-16.36-29.91-.63-1.71-.92-3.62-3.52-2.95-2.23.59-2.77,2-2.09,4.07,5.69,17.31,13.15,33.45,29.41,43.61C543.49,519.06,546.31,520,549.06,521.19Z"/><path class="cls-1" d="M213.59,755c-24.54,0-49.09-.18-73.62.13-5.59.07-7.17-1.27-6.93-7,2-48.31,3.62-96.63,5.61-144.94.23-5.66-1.26-8.14-7-9.46-10-2.31-19.78-5.91-29.75-8.57-3.34-.89-4.48-2.19-3.89-5.53,3.49-19.43,6.76-38.89,11.36-58.11s17.24-31.45,34.33-39.95c11.27-5.6,22.81-10.56,34.5-15.2a19,19,0,0,1,7.24-1.3c19.14.06,38.28,0,57.41.12a16.89,16.89,0,0,1,6,.77c15.68,6.18,31.2,12.66,45.69,21.42,16.19,9.79,23,25.29,26.46,42.75,3.29,16.52,6.12,33.12,9.29,49.66.6,3.14-.37,4.34-3.41,5.18-10.38,2.87-20.58,6.39-31,9-4.8,1.2-6.3,3.06-6.22,8.06.65,41.62,3.07,83.16,4.43,124.75.24,7.41.37,14.85,1.1,22.23.49,4.87-1.14,6.13-5.85,6.09C264,754.9,238.8,755,213.59,755Zm-38-273.15c-2.45,1.8-3.52,4.57-5.06,7C149.4,522.6,143.3,560.5,142,599.09c-1.6,48.53-3.18,97.07-5.45,145.58-.26,5.76,1.08,7.11,6.74,7.09q70.89-.33,141.8,0c5.45,0,6.6-1.5,6.38-6.71-1.91-46.49-3.77-93-5.19-139.51-.86-28.21-4.26-56-12.77-82.92-4.64-14.7-12.18-28-20.68-41.17C233.59,506.18,193.25,505.22,175.58,481.85ZM325.28,575c-.28-1.76-.5-3.53-.87-5.28-3.2-15.43-5.75-31-9.71-46.29-3.83-14.86-11.37-25.8-24.09-33.76-9.13-5.72-19.39-9.11-28.76-14.31-1.61-.89-3.46-2.6-5.42-.41s-.12,3.64.88,5.33c8.55,14.45,17.09,28.89,21.37,45.35,2.86,11,6,21.89,7.32,33.23,1,8.62,2.85,17.16,3.56,25.8.48,5.82,3.57,6.17,7.65,4.84,7-2.28,13.77-4.89,21-6.22C322.35,582.54,326,580.39,325.28,575Zm-222.93,2.13c.16,2.76,2.3,4.9,5.06,5.73,8.77,2.62,17.71,4.68,26.48,7.28,3.71,1.11,4.74.19,4.75-3.55,0-5.73-.34-11.69,1.05-17.15,2.45-9.67,4-19.48,5.57-29.27a115.32,115.32,0,0,1,9.59-30.27c4.75-10.05,9.36-20.73,16.7-29.6a4.24,4.24,0,0,0,0-5.62c-1.59-1.68-3.47-.25-4.8.79-5.51,4.29-12.47,5.5-18.53,8.74A131.9,131.9,0,0,0,129,496.06c-14.29,11.09-15.36,28-19.65,43.53-.67,2.4-1.52,7.84-1.52,7.84C105.84,557.21,105.57,566.93,102.35,577.15ZM214.44,468.4c-8.08,0-16.16-.07-24.24.06-1.85,0-4.47-1.16-5.44,1s.65,4.31,1.94,6.13c6.45,9.06,16,12.12,26.39,12.31,11.13.2,21.38-2.66,28.38-12.37,1.32-1.82,2.91-4,2-6.08s-3.58-.93-5.45-1C230.16,468.34,222.3,468.4,214.44,468.4Zm-.65,27c5.86.7,11.72-.79,17.51-2.69,1.87-.61,3.62-1.62,2.88-3.76-.87-2.47-2.64-.68-3.86-.14a39.53,39.53,0,0,1-23.84,2.26c-10.55-2.1-21.24-5.51-25.09-17.79-.34-1.08-.62-3-2.51-2.28-1.48.61-2.83,2.15-2.18,3.76a21.56,21.56,0,0,0,3.79,6.24C189.25,490.81,200,496.2,213.79,495.39ZM249.07,470c-4,5.51-5.28,12.09-11.09,15.39-.57.32-.45,2-.46,3,0,.16,1.07.51,1.61.45C244.27,488.38,251.3,476,249.07,470Z"/><path class="cls-2" d="M806.23,264.46l1.52-8.16c1.07,7.31,2.26,14.51.31,21.68.06-3.8.15-7.59.16-11.38C808.22,265.37,808.53,263.64,806.23,264.46Z"/><path class="cls-2" d="M289.49,274c-1.91-4.41-.82-9-.95-14.79,2,3.18,3.16,5.29,2.79,8C287.76,268.61,290.69,271.83,289.49,274Z"/><path class="cls-3" d="M955.94,272.88c.82,38.95,3.15,76.66,5.11,114.38.23,4.31-.91,5.37-5.08,5.36q-72.26-.19-144.52,0c-4.68,0-5.52-1.45-5.31-5.73,1.73-35.26,3-70.54,4.92-105.78,1.43-26.08.1-52.15.66-78.21.49-22.86,3.28-45.32,17.68-64.52A72.62,72.62,0,0,1,849,120.09c3-1.9,5-2.3,6.41,1.84,1.2,3.6,3.14,6.94,4.68,10.43s3.31,4,5.64.68c1.41-2,2.76-4.12,4.35-6,1.19-1.43,1.8-4,4.48-3.25s1.85,3.28,1.86,5.14c.06,12.15.29,24.3-.11,36.43-.18,5.31,1.72,6.68,6.59,6.21,4.3-.41,9,1.24,8.66-6.36-.59-12.35-.18-24.74-.12-37.11,0-1.46-.76-3.42,1.1-4.21,2.27-1,3.06,1.2,4.11,2.52,8.25,10.35,8.67,10.53,13.73-1.87,2.7-6.6,5.3-6.47,10.41-2.8,19.73,14.18,29.4,33.93,32.7,57.38a246.1,246.1,0,0,1,1.76,51.12C954.23,244.83,955.18,259.45,955.94,272.88Z"/><path class="cls-4" d="M917.16,111.83c3.58-.46,6.64,1.2,9.59,2.73,10.24,5.28,21.85,7.49,31.31,14.73,2.27,1.74,6.26,2.18,9.34,3.83,13.74,7.32,19.26,20.18,20.92,34.18,1.44,12.25,5.34,23.92,6.49,36.17,1.86,19.75,5.89,39.21,8.19,58.92,1.89,16.13,4.37,32.22,6.35,48.36,2,16.62,4.26,33.22,6.4,49.83.68,5.31,1.07,10.68,2.11,15.93.7,3.55-.32,5.22-3.78,5.45-7.6.51-15.2,1-22.81,1.4-4.94.28-7.38-1.15-8.24-7-2.9-19.66-7.38-39.1-9.77-58.8-.68-5.57-2.3-10.76-3-16-2.64-20.77-8.56-41-10.82-61.67-1.58-14.46-.18-29.23-.54-43.84-.55-22.57-5.3-44.15-19.36-62.33-5.84-7.55-13.4-13.93-21.39-19.49-.62-.43-.8-1.49-1.18-2.26Z"/><path class="cls-4" d="M772.65,383.37c-6.19-.52-11.54-.9-16.88-1.46-4.35-.45-7.17-2.35-6.29-7.39.35-2,.29-4,.71-6,3.34-15.53,3.94-31.4,6-47.08,2.55-19,5-38,7.48-57.07,2.44-18.36,4.66-36.76,7.55-55a255.22,255.22,0,0,1,5.87-28.59c1.87-6.74,1.86-14.05,3.73-21,4-14.8,12.93-24.86,26.76-30.93q17.11-7.52,34.23-15a33.43,33.43,0,0,1,4.46-1.51c1.7-.48,3.32-.14,3.91,1.63s-1.17,2.16-2.26,2.82c-22.64,13.69-34.51,34.13-37.73,60-1.69,13.51-5.26,27-3.77,40.64,2.27,21-3.18,41-6.52,61.35-4.22,25.75-8.5,51.48-12.52,77.25-.93,6-2.53,11.76-3.19,17.81C783.39,381.47,779.94,383.48,772.65,383.37Z"/><path class="cls-4" d="M908,96.15c-2.4,5.95-6.21,8.24-12.52,7.81-8.51-.57-17.08-.13-25.62-.14-2.22,0-4.55.31-6.32-1.56-1.34-1.43-3.53-2.58-2.86-4.93s3-1.33,4.63-1.66C879.53,92.84,893.65,94.76,908,96.15Z"/><path class="cls-4" d="M764.23,387.42h2c9.51.05,13,6,8.59,14.5-1,1.8-2.47,1.67-4,1.68-4.25,0-8.51-.16-12.75,0-3.57.14-4.5-1.47-4.65-4.81C752.93,387.37,752.81,387.38,764.23,387.42Z"/><path class="cls-4" d="M1003.15,387.44c2.8,1.6,8.06-3.28,10.1,3.45,3,10,1.3,12.56-9.14,12.7h-1.35c-10.33.06-10.89-.55-11.39-10.57-.19-3.84.76-6.07,5.14-5.63C998.51,387.61,1000.55,387.44,1003.15,387.44Z"/><path class="cls-3" d="M887.66,147.46c0,5.39-.11,10.78,0,16.17.08,2.91-.34,4.67-3.94,4.44-2.88-.19-4.51-.57-4.44-4.1.2-11.45.36-22.91,0-34.35-.21-6.19,3.94-2,5.85-2.89,4-1.88,2.4,1.94,2.45,3.22.21,5.83.09,11.67.09,17.51Z"/><path class="cls-4" d="M874.38,117.89c-1.94,1.16-3.77,1.82-5.13,3.42-4.78,5.6-7,5.66-9.83-.82-2.69-6.24-6.87-12.41-5.16-21.73C859.83,107.88,867.15,112.7,874.38,117.89Z"/><path class="cls-4" d="M913.24,101.51c-1.15,10.33-4.64,17.94-8.26,25.37-1.09,2.24-3,.21-4.07-1.31-2-2.84-3.93-5.83-7.44-8C900.93,114.17,905.58,107.52,913.24,101.51Z"/><path class="cls-3" d="M868.32,108.26h30.09c-4.38,5.66-12.15,6.47-14.63,15C880.8,115,873.48,113.77,868.32,108.26Z"/><path class="cls-2" d="M917,112l-.53-.39.69.23Z"/><path class="cls-3" d="M548.35,392.54c-23.63,0-47.27-.13-70.9.1-4.83.05-6.65-.76-6.26-6.18,3.29-46.43,4.73-92.95,6.2-139.46.42-13.67-1-27.39-.75-41.07.45-26.69,4.82-52.33,22-74.2,9.3-11.86,9.45-11.88,15.71,1,5.38,11.08,12.75,20.54,23.12,27.56,7.8,5.29,15,5.36,22.92-.08,12-8.22,19.55-19.58,25.31-32.49,3.05-6.85,3.23-7,8.48-1.38,16.06,17.1,23.3,37.85,25.68,60.85,1.83,17.76,0,35.46.39,53.16.93,46.75,2.77,93.48,5.79,140.15.78,12,1,12-10.81,12Z"/><path class="cls-4" d="M661.35,383.36c-11.74.05-11.47,0-13.38-11.2-3.71-21.79-7.91-43.5-11.6-65.29-3.52-20.82-6.32-41.76-10.15-62.51a90.72,90.72,0,0,1-1.43-22.46c1.29-21.91-.69-43.76-7-64.9-3.49-11.6-11.33-21.09-17.44-31.39-1.65-2.77-5.64-4.15-8.53-6.19-1.19-.84-2.06-2-1.37-3.44.88-1.77,2.34-.69,3.48-.21,15.31,6.47,31.37,11.48,44.7,21.91,9.59,7.5,12.63,18.51,14.89,29.71,2,9.77,3.55,19.63,5.25,29.45a286.63,286.63,0,0,1,3.95,29.72c.67,10,3.6,19.9,5,29.9,2.69,19,5,38.07,7.46,57.12,2,15.95,4,31.91,6,47.86.59,4.65,1.46,9.26,2,13.92.82,6.81-5.8,5-8.72,6.27C670.4,383.36,665.38,384.2,661.35,383.36Z"/><path class="cls-4" d="M437.64,383.41c-6.25-.47-12.49-1-18.74-1.4-3.43-.22-4.83-1.87-4.4-5.26,1.78-14.17,3.47-28.35,5.3-42.51,2.16-16.6,4.73-33.15,6.57-49.78,2.73-24.64,6.61-49.1,10.37-73.59,1.12-7.26,1.61-14.67,3.32-21.83,2-8.52,3.11-17.18,4.72-25.76C448.2,145,460.45,134,476.72,127.07c4.94-2.11,9.62-7,16-3.85,1.24-3.6,4.45-5.13,7.42-6.79,2-1.13,4.62-3.26,6.48-.23,1.63,2.64-1.74,3.2-3,4.31a82.34,82.34,0,0,0-26,43.37c-4.9,21.19-7.13,43.08-4.07,65.09.9,6.48-.77,13.41-3.42,18.95-3.57,7.45-1.15,15-3,22.35-3.73,15.12-5.45,30.7-8.1,46.06-2.37,13.75-5.08,27.49-6.9,41.35-.87,6.64-1.81,13.28-2.89,19.89C448.07,384.73,442.5,383.4,437.64,383.41Z"/><path class="cls-3" d="M549,109.3h24.91c2.34,0,4.94-.23,3.41,3.43-5.62,13.48-11.34,26.85-23.54,36.1-3.66,2.78-6.41,2.79-10.05-.11-11.91-9.51-17.92-22.67-23.34-36.28-1.33-3.35.93-3.13,3-3.13Q536.17,109.32,549,109.3Z"/><path class="cls-4" d="M550.08,160.36c-10.42-1.39-17.47-8.1-23.63-15.6-6.37-7.76-10.59-16.87-13.79-26.42-.83-2.5-1.87-5.16,1.51-6s3.05,2.68,3.76,4.46c5,12.55,10.74,24.58,21.65,33.33,8.33,6.69,10.78,6.1,19-.41,11.87-9.41,16-23.43,23.09-35.71.87-1.52.52-3.77,3.33-2.43s.66,2.52.29,4.13c-3.73,16.3-12.62,29.25-25.29,39.8C557.09,157.86,554.21,160.54,550.08,160.36Z"/><path class="cls-4" d="M431.2,387.42c11.28.05,13.88,3.34,8.33,13.68-3.11,5.79-10.56,1.67-16,2.28-2.76.31-4.9-1.23-5.24-4.78C417.37,389.14,419.27,387.37,431.2,387.42Z"/><path class="cls-4" d="M666.65,403.58c-3.13-.75-8.19,2.28-9.23-4.84-1.42-9.68-.57-11.11,9.63-11.31,2.46-.05,4.93.05,7.39,0a4,4,0,0,1,4.08,2.82c3.26,7.75-.26,13.18-8.67,13.36C669,403.6,668.06,403.58,666.65,403.58Z"/><path class="cls-3" d="M286.37,280.56c1.66,35.49,3.24,71,5.11,106.46.24,4.67-1.16,5.61-5.51,5.6q-71.93-.19-143.85,0c-5.09,0-5.69-1.67-5.45-6.21,2.49-48.28,5.24-96.55,5.94-144.89.24-16.62-1.47-33.22-.06-49.88,1.89-22.43,7.86-43.23,22.26-61,.84-1,1.68-2.11,2.6-3.09,6.24-6.64,6.26-6.63,12.34-.34,17.77,18.37,53.24,17.86,69.74-1.59,4.07-4.81,6.06-3.31,9.17,0,15.42,16.28,23.21,35.81,25.94,57.91,3.26,26.27-.27,52.58,1.24,78.84.35,6,.05,12.13.05,18.2Z"/><path class="cls-4" d="M326,383.36c-11.41,0-11.23,0-13-10.22-4.33-25.3-9.18-50.52-13.16-75.88-2.88-18.32-7.47-36.42-9.36-54.79-1.7-16.39-.73-33.11-.06-49.65.2-5-1.51-9.47-2.31-14-3.82-21.6-11.12-41.84-28.05-57.2-1.3-1.18-2.75-2.93-1.83-4.69.83-1.6,2.84-1.17,4.23-.36,11.8,6.86,25.63,9.46,36.9,17.24,6.82,4.71,12.34,10.46,15.17,19a228.93,228.93,0,0,1,8.48,37c.52,3.38,1,6.57.09,10-1.34,5.1,3.26,8.51,3.84,13.58,2,17.51,4.33,35,6.66,52.48,2,15.25,4.37,30.5,6.46,45.76,2.83,20.74,5.34,41.52,7.9,62.3.67,5.38-1.06,8.75-7.39,8.18C335.41,381.61,330.45,384.34,326,383.36Z"/><path class="cls-4" d="M102.06,383.36c-5.42-.46-12.69-.88-19.83-3-2.33-.71-2.59-.78-2.27-3.21,2.8-21.48,5.62-43,8.06-64.46,2.63-23.09,6.1-46.05,8.84-69.11,2.17-18.27,5.68-36.37,8.52-54.56,1.37-8.83,2.66-17.66,4.83-26.35,3.91-15.6,12-26.7,27.81-33.11,9.57-3.87,19-8.71,28.47-13.31,1.51-.74,3.47-2.6,4.84-.84,1.63,2.08-.53,3.58-2.09,4.82-10.85,8.59-17.21,20.74-22.69,32.67a78.22,78.22,0,0,0-6.81,25.2,405.35,405.35,0,0,0-1.09,47c.31,12.26-2.81,24-4.82,35.83-3.52,20.79-6.71,41.64-10.26,62.42-2.8,16.43-5.88,32.79-8.41,49.27C113.54,383.17,112.43,383.4,102.06,383.36Z"/><path class="cls-3" d="M214.45,109.29c8.3,0,16.6.28,24.88-.09,5.43-.25,5,2.12,3.15,5.46a22.59,22.59,0,0,1-3.16,4.32c-11.52,12.76-38.17,13.07-50.06.62a19,19,0,0,1-4.12-6.06c-1.28-3.16-.54-4.39,3.09-4.31C197,109.43,205.71,109.29,214.45,109.29Z"/><path class="cls-4" d="M249.15,110.92c3,4.65.85,8.24-1.46,11.31-6.47,8.59-15.87,12.34-26.05,13.83a64.07,64.07,0,0,1-16.83,0c-10.51-1.27-18.33-7.63-25.08-15.21-2.2-2.48-3.27-5.89-.39-9.72,7,14.63,17.7,21.9,34.36,21.35C229.87,131.93,241.5,125.63,249.15,110.92Z"/><path class="cls-4" d="M332.43,403.6c-9.55,0-11.43-2-11.29-11.68.05-3.37,2.42-4.22,4.89-4.33,5.11-.22,10.24,0,15.36,0a2.3,2.3,0,0,1,2.54,2.44c0,.44,0,.89.06,1.34C345.25,403.37,345.08,403.55,332.43,403.6Z"/><path class="cls-4" d="M93,387.58a39.25,39.25,0,0,1,6,.05c4.6.74,7.9,2.53,7.16,8.3-.69,5.31-2.67,8.42-8.54,7.71-1.55-.19-3.15.06-4.7-.08-4.5-.41-9.46-.47-9.65-6.78C83.07,389,84.88,387.37,93,387.58Z"/><path class="cls-3" d="M850.8,470.79c3.2,7.37,6,13.64,8.66,20,1.79,4.26,3.67,6.47,6.84,1a6.2,6.2,0,0,1,1.29-1.55c2.5-2.22,3-8,7.3-6.45,3.6,1.27,1.46,6,1.53,9.12.26,10.35.7,20.74-.1,31-.58,7.49,3.36,6.74,8.35,7.1,6.18.44,6.94-2.31,6.8-7.47-.32-11.92-.14-23.85,0-35.77,0-1.56-1.06-3.88,1.61-4.45,2-.42,2.58,1.44,3.52,2.62,8.23,10.38,8.25,10.4,13.85-1.53,2-4.24,3.79-8.57,5.83-13.21,19.24,28,31.36,58.07,36.07,91.5,5.19,36.94,3.36,74.09,5.42,111.1,1.33,23.8,2,47.64,3.39,71.44.3,5.19-1,6.49-6.11,6.47q-71.61-.25-143.2,0c-4.86,0-5.9-1.3-5.71-6,1.84-44.49,3.79-89,5-133.49a392,392,0,0,1,8.76-74.83C825.2,513.21,837.62,492.36,850.8,470.79Z"/><path class="cls-4" d="M841.31,478c-2.29,4.08-5,8.68-7.47,13.38-7.81,14.73-14.63,29.79-18.23,46.27s-5.73,32.93-7.82,49.51c-.45,3.55-1.53,4-4.64,3-9.42-2.88-18.91-5.53-28.38-8.2-2.63-.75-3.35-1.92-2.83-4.88,3.48-19.77,6.11-39.75,12.6-58.82,5.08-14.9,14.44-26,29.6-32.38,7.68-3.25,15.13-7.37,22.85-10.76C839.08,474.22,841.57,473.19,841.31,478Z"/><path class="cls-4" d="M930.59,479.23c-1.45-.17-2.89-.63-2.38-2.41.65-2.25,2.41-1.53,3.84-.86,8.06,3.79,16,7.75,24.17,11.41,7.46,3.36,13.26,9.11,18.46,14.83,6.27,6.89,9.47,16.17,11.16,25.42,2.89,15.73,5.63,31.49,9.33,47,1.18,5-.64,7.32-5.56,8.5-8.88,2.12-17.65,4.69-26.42,7.23-4,1.15-4-1.45-4.18-4A254.25,254.25,0,0,0,955.47,554a265.44,265.44,0,0,0-10.85-39.27c-3.46-9.69-9.9-17.83-12.74-27.75a29.14,29.14,0,0,1-1.27-7.77l.28-.51Z"/><path class="cls-4" d="M884.59,455c5.38,0,10.76,0,16.14,0,2.46,0,6,0,6.07,2.69,0,3-3,6-6.06,6.17-11,.52-22.09.53-33.14.43-3.69,0-5.64-3.11-5.59-6.29s3.32-3,5.76-3C873.38,454.92,879,455,884.59,455Z"/><path class="cls-3" d="M879.51,506.51c0-5.39.2-10.79-.07-16.16-.19-3.63,1.06-3.9,4.49-4.21,4.2-.38,3.73,1.57,3.73,4.07,0,11,0,22,0,33,0,2.63.18,4.76-3.68,4.71-3.47,0-4.78-1-4.61-4.58.26-5.6.07-11.22.07-16.83Z"/><path class="cls-4" d="M863.09,488.85c-7.53-12.67-9.44-19.86-7.4-28.24,6.09,5.77,10.22,13.15,18.58,16.88C869.46,481,864.35,482.77,863.09,488.85Z"/><path class="cls-3" d="M868,467.65h30.18c-2.12,4.28-7.2,4.74-9.4,7.76-3.89,5.35-6.15,6-10.3.11C876.41,472.57,871.7,471.57,868,467.65Z"/><path class="cls-4" d="M912.74,459.8c.46,5.38.79,9.89-3.12,14.05-1.66,1.76-1.38,5.28-2.18,7.94-.65,2.14-1.46,4.48-4.42,4.1-4-.51-4.84-4.33-6.8-6.88-1.57-2-.19-3.57,1.55-5C902.92,469.71,908.56,465.94,912.74,459.8Z"/><path class="cls-3" d="M510.24,481c4,9.71,7.55,18.24,13.51,25.28,19.94,23.53,30.55,23.29,50.28-.19,5.93-7.06,9.49-15.59,13.38-25,13.09,20.36,22.06,41,26.89,63.71,6.6,31,6.92,62.49,7.74,93.93q1.35,51.6,4.18,103.13c.52,9.79.44,9.82-9,9.82-46.61,0-93.22-.07-139.82.11-5,0-6.49-1-6.2-6.26,2.78-50.53,3.72-101.14,5.82-151.68,1.51-36.21,7.67-72,27.6-103.7C506.25,487.47,507.87,484.79,510.24,481Z"/><path class="cls-4" d="M469.92,590.65c-10-2.87-19.91-5.78-29.89-8.58-3.09-.87-2.79-2.83-2.3-5.24,1.83-9.12,3.28-18.3,5.37-27.39,1.58-6.87,1.79-14.47,3.75-21.44,3.82-13.64,7.46-27.78,21.13-35.44,10.21-5.73,19.71-13.15,31.85-14.78a3.11,3.11,0,0,1,.66-.1c2.7.22,3.31-5.95,6.29-2.75s-1.4,5.87-2.78,8.08c-6.51,10.39-11.3,21.68-17,32.45-3.37,6.4-3.92,14.54-6.21,21.8-5,16-6.27,32.62-7.07,49.27C473.63,589.05,473.91,591.82,469.92,590.65Z"/><path class="cls-4" d="M642.73,586.09a52.35,52.35,0,0,0-13.29,3.7c-5.57,2.43-5.76.23-5.63-3.92.55-17.64-4.18-34.66-7.39-51.68-3.35-17.77-11.89-34.11-21.78-49.45a4,4,0,0,1-.4-.54c-1.45-2.95-4.57-6.52-2.08-9.1,2.2-2.29,6,.83,8.32,2.3,9.6,6.08,20.79,9,29.93,16.15,4.83,3.77,7.75,8.47,11.46,12.91,7.88,9.45,9,20.66,11,31.58,1.88,10.65,6.17,21,5.31,32-.15,1.94,1.69,2.58,1.91,4.11.68,4.62.58,8.49-5.68,9.12C650.46,583.69,646.62,585.13,642.73,586.09Z"/><path class="cls-3" d="M578.36,468.39c-5.64,15.77-12.09,30-25.37,40.13-3,2.27-5.7,2.08-8.55-.09-12.54-9.52-18.67-23.2-24.26-37.23-1.13-2.83.86-2.82,2.8-2.82C541.14,468.4,559.3,468.39,578.36,468.39Z"/><path class="cls-3" d="M549.06,521.19c-2.75-1.24-5.57-2.13-8-3.65-16.26-10.16-23.72-26.3-29.41-43.61-.68-2.08-.14-3.48,2.09-4.07,2.6-.67,2.89,1.24,3.52,2.95,4,10.77,8.59,21.32,16.36,29.91,13.81,15.27,17,14.74,30.6-.18,7.46-8.22,11.93-18.36,15.84-28.7.68-1.8.43-5,4.07-3.88,3.92,1.24,2,4,1.26,6-5.73,16.29-12.87,31.66-28.37,41.22C554.56,518.69,551.85,519.79,549.06,521.19Z"/><path class="cls-3" d="M175.58,481.85c17.67,23.37,58,24.33,77.27-.38,8.5,13.13,16,26.47,20.68,41.17,8.51,27,11.91,54.71,12.77,82.92,1.42,46.51,3.28,93,5.19,139.51.22,5.21-.93,6.73-6.38,6.71q-70.91-.36-141.8,0c-5.66,0-7-1.33-6.74-7.09,2.27-48.51,3.85-97,5.45-145.58,1.28-38.59,7.38-76.49,28.5-110.22C172.06,486.42,173.13,483.65,175.58,481.85Z"/><path class="cls-4" d="M325.28,575c.67,5.37-2.93,7.52-7,8.28-7.27,1.33-14.09,3.94-21,6.22-4.08,1.33-7.17,1-7.65-4.84-.71-8.64-2.57-17.18-3.56-25.8-1.31-11.34-4.46-22.24-7.32-33.23-4.28-16.46-12.82-30.9-21.37-45.35-1-1.69-4.83-5.11-2.94-7.23s5.87,1.42,7.48,2.31c9.37,5.2,19.63,8.59,28.76,14.31,12.72,8,20.26,18.9,24.09,33.76,4,15.34,6.51,30.86,9.71,46.29C324.78,571.49,325,573.26,325.28,575Z"/><path class="cls-4" d="M102.35,577.15c3.22-10.22,3.65-20.78,5.51-29.72,0,0,.85-5.44,1.52-7.84,4.29-15.5,5.36-32.44,19.65-43.53a131.9,131.9,0,0,1,19.17-11.83c6.06-3.24,13-4.45,18.53-8.74,1.33-1,3.21-2.47,4.8-.79a4.24,4.24,0,0,1,0,5.62c-7.34,8.87-12,19.55-16.7,29.6a115.32,115.32,0,0,0-9.59,30.27c-1.6,9.79-3.12,19.6-5.57,29.27-1.39,5.46-1,11.42-1.05,17.15,0,3.74-1,4.66-4.75,3.55-8.77-2.6-17.71-4.66-26.48-7.28C104.65,582.05,102.51,579.91,102.35,577.15Z"/><path class="cls-3" d="M214.44,468.4c7.86,0,15.72-.06,23.57.05,1.87,0,4.54-1.09,5.45,1s-.67,4.26-2,6.08c-7,9.71-17.25,12.57-28.38,12.37-10.39-.19-19.94-3.25-26.39-12.31-1.29-1.82-2.92-4-1.94-6.13s3.59-.94,5.44-1C198.28,468.33,206.36,468.4,214.44,468.4Z"/><path class="cls-4" d="M213.79,495.39c-13.76.81-24.54-4.58-33.3-14.4a21.56,21.56,0,0,1-3.79-6.24c-.65-1.61.7-3.15,2.18-3.76,1.89-.76,2.17,1.2,2.51,2.28,3.85,12.28,14.54,15.69,25.09,17.79a39.53,39.53,0,0,0,23.84-2.26c1.22-.54,13.26-6.7,14.12-4.23.75,2.14-11.27,7.52-13.14,8.13C225.51,494.6,219.65,496.09,213.79,495.39Z"/><path class="cls-1" d="M930.59,479.23l.3-.5-.28.51Z"/></g></svg>