<svg id="Layer_1" data-name="Layer 1" xmlns="http://www.w3.org/2000/svg" viewBox="0 0 326.74 315.48"><defs><style>.cls-1{fill:none;}.cls-2{fill:#242425;}.cls-3{fill:#fefdfd;}.cls-4{fill:#fff;}</style></defs><title>SINGER_teeshirt</title><path class="cls-1" d="M55.39,117.47c1.57-7.71,2.17-15.34,3.56-22C57.44,102.73,56.9,110,55.39,117.47Z"/><path class="cls-1" d="M224.62,70.62a132.73,132.73,0,0,0-8.2-19.8,169.48,169.48,0,0,1,8.2,20.73c8.51,26.91,11.91,54.62,12.77,82.79,1.42,46.44,3.28,92.87,5.19,139.29,0,.25,0,.48,0,.72,0-.41,0-.83,0-1.29-1.91-46.5-3.77-93-5.19-139.52C236.53,125.33,233.13,97.57,224.62,70.62Z"/><path class="cls-2" d="M281.29,127.78c-3.16-16.54-6-33.15-9.28-49.66-3.49-17.47-10.27-33-26.46-42.75-14.49-8.76-30-15.24-45.69-21.42a16.89,16.89,0,0,0-6-.77c-19.13-.08-38.27-.06-57.41-.13a19,19,0,0,0-7.24,1.31C117.56,19,106,24,94.75,29.56,77.66,38.06,65,50.2,60.42,69.51s-7.87,38.68-11.36,58.11c-.6,3.34.55,4.64,3.89,5.53,10,2.66,19.71,6.26,29.75,8.56,5.78,1.33,7.27,3.8,7,9.46-2,48.31-3.6,96.64-5.61,145-.24,5.73,1.34,7.07,6.92,7,24.54-.31,49.09-.13,73.63-.13,25.21,0,50.43-.11,75.65.09,4.71,0,6.34-1.22,5.85-6.09-.73-7.38-.86-14.82-1.1-22.24-1.36-41.58-3.78-83.13-4.43-124.74-.08-5,1.42-6.87,6.22-8.06,10.44-2.6,20.64-6.12,31-9C280.93,132.12,281.89,130.91,281.29,127.78ZM133.85,16.4c1-2.11,5.58-.93,7.44-1,8.07-.12,26.24,0,26.24,0s15.71-.06,23.57,0c1.87,0,4.54-1.08,5.45,1s-.68,4.23-2,6a34.64,34.64,0,0,1-29.06,14c-10.73-.35-22.26-4-28.71-13C135.5,21.68,132.87,18.51,133.85,16.4Zm-6.37,2.08c2.85-1.32,13.65,21.07,39.4,20.29s33.69-23.54,35.38-20.94S196.74,42,167.14,43.06,123.84,20.17,127.48,18.48ZM89.73,134.6c0,3.73-1,4.65-4.75,3.55-8.77-2.61-17.71-4.66-26.48-7.29a6.62,6.62,0,0,1-5.06-5.73,75.43,75.43,0,0,0,2-7.66c1.51-7.47,2-14.74,3.56-22,0,0,.85-5.44,1.52-7.85,4.28-15.49,5.36-32.43,19.65-43.52A131.37,131.37,0,0,1,99.29,32.22C105.35,29,112,25.29,117.85,23c1.58-.61,4.3-2.28,5.9-.6s.21,4.29-1.11,5.89c-7.34,8.87-12,19.55-16.7,29.6a115.59,115.59,0,0,0-9.6,30.27c-1.59,9.78-3.11,19.6-5.56,29.27C89.39,122.91,89.76,128.87,89.73,134.6ZM242.58,293.06c0,.46,0,.88,0,1.29.07,4.61-1.22,6-6.4,6-47.27-.23-95.54-.23-142.8,0-5.66,0-7-1.33-6.74-7.07,2.27-48.43,3.85-96.89,5.45-145.35,1.27-38.52,7.38-76.36,28.5-110,.91-1.44,2.28-5.13,3.24-6.83s2.56-2.16,3.8-.75c18.17,20.56,56.15,21.94,75.12-.37a1.38,1.38,0,0,1,2.2.16,184,184,0,0,1,11.45,20.77,132.73,132.73,0,0,1,8.2,19.8c8.51,26.95,11.91,54.71,12.77,82.92C238.81,200.06,240.67,246.56,242.58,293.06Zm26.76-161.77c-7.27,1.33-14.09,3.94-21,6.22-4.08,1.33-7.17,1-7.65-4.84-.71-8.64-2.57-17.18-3.56-25.8-1.31-11.34-4.46-22.24-7.32-33.23-4.28-16.46-13.21-30.58-21.76-45-1-1.69-4.44-5.44-2.55-7.56s6.23.92,7.84,1.81c9.37,5.21,19.27,9.09,28.4,14.8,12.72,8,20.26,18.91,24.09,33.77,4,15.33,6.51,30.86,9.71,46.29.36,1.74.59,3.52.87,5.27C277,128.38,273.44,130.53,269.34,131.29Z"/><path class="cls-3" d="M237.39,154.34c-.86-28.17-4.26-55.88-12.77-82.79a169.48,169.48,0,0,0-8.2-20.73A184,184,0,0,0,205,30.05a1.38,1.38,0,0,0-2.2-.16c-19,22.31-57,20.93-75.12.37-1.24-1.41-2.87-.88-3.8.75s-2.33,5.39-3.24,6.83c-21.12,33.68-27.23,71.52-28.5,110-1.6,48.46-3.18,96.92-5.45,145.35-.27,5.74,1.08,7.1,6.74,7.07,47.26-.21,95.53-.21,142.8,0,5.18,0,6.47-1.36,6.4-6,0-.24,0-.47,0-.72C240.67,247.21,238.81,200.78,237.39,154.34Z"/><path class="cls-4" d="M275.5,117.73c-3.2-15.43-5.75-31-9.71-46.29C262,56.58,254.42,45.64,241.7,37.67c-9.13-5.71-19-9.59-28.4-14.8-1.61-.89-5.89-4-7.84-1.81S207,26.93,208,28.62c8.55,14.44,17.48,28.56,21.76,45,2.86,11,6,21.89,7.32,33.23,1,8.62,2.85,17.16,3.56,25.8.48,5.81,3.57,6.17,7.65,4.84,6.95-2.28,13.77-4.89,21-6.22,4.1-.76,7.7-2.91,7-8.29C276.09,121.25,275.86,119.47,275.5,117.73Z"/><path class="cls-4" d="M96.34,88.18a115.59,115.59,0,0,1,9.6-30.27c4.75-10,9.36-20.73,16.7-29.6,1.32-1.6,2.63-4.29,1.11-5.89s-4.32,0-5.9.6c-5.87,2.27-12.5,6-18.56,9.2A131.37,131.37,0,0,0,80.12,44.05c-14.29,11.09-15.37,28-19.65,43.52C59.8,90,59,95.42,59,95.42c-1.39,6.71-2,14.34-3.56,22a75.43,75.43,0,0,1-2,7.66,6.62,6.62,0,0,0,5.06,5.73c8.77,2.63,17.71,4.68,26.48,7.29,3.71,1.1,4.74.18,4.75-3.55,0-5.73-.34-11.69,1-17.15C93.23,107.78,94.75,98,96.34,88.18Z"/><path class="cls-3" d="M165.5,36.47a34.64,34.64,0,0,0,29.06-14c1.31-1.81,2.91-4,2-6s-3.58-.93-5.45-1c-7.86-.11-23.57,0-23.57,0s-18.17-.07-26.24,0c-1.86,0-6.47-1.15-7.44,1s1.65,5.28,2.94,7.09C143.24,32.5,154.77,36.12,165.5,36.47Z"/><path class="cls-4" d="M167.14,43.06C196.74,42,204,20.43,202.26,17.83S192.63,38,166.88,38.77s-36.55-21.61-39.4-20.29C123.84,20.17,137.55,44.17,167.14,43.06Z"/></svg>