<svg id="Layer_1" data-name="Layer 1" xmlns="http://www.w3.org/2000/svg" viewBox="0 0 326.74 315.48"><defs><style>.cls-1{fill:none;}.cls-2{fill:#242425;}.cls-3{fill:#fefdfd;}.cls-4{fill:#fff;}</style></defs><title>SINGER_teeshirtdos</title><path class="cls-1" d="M55.39,117.47c1.57-7.71,2.17-15.34,3.56-22C57.44,102.73,56.9,110,55.39,117.47Z"/><path class="cls-1" d="M224.62,70.62a132.73,132.73,0,0,0-8.2-19.8,169.48,169.48,0,0,1,8.2,20.73c8.51,26.91,11.91,54.62,12.77,82.79,1.42,46.44,3.28,92.87,5.19,139.29,0,.25,0,.48,0,.72,0-.41,0-.83,0-1.29-1.91-46.5-3.77-93-5.19-139.52C236.53,125.33,233.13,97.57,224.62,70.62Z"/><path class="cls-2" d="M281.7,127.91c-3.17-16.54-6-33.14-9.29-49.66-3.48-17.46-10.26-33-26.45-42.75-14.49-8.76-30-15.24-45.69-21.42a16.92,16.92,0,0,0-6-.77c-19.14-.08-38.27-.06-57.41-.12a19,19,0,0,0-7.24,1.3c-11.69,4.64-23.24,9.6-34.5,15.2-17.1,8.5-29.71,20.64-34.33,40S53,108.32,49.47,127.75c-.6,3.34.55,4.64,3.88,5.53,10,2.66,19.71,6.26,29.76,8.57,5.77,1.32,7.27,3.8,7,9.46-2,48.31-3.59,96.63-5.6,144.94-.24,5.73,1.34,7.07,6.92,7,24.54-.31,49.08-.13,73.62-.13,25.22,0,50.44-.1,75.65.09,4.72,0,6.34-1.22,5.86-6.09-.73-7.38-.86-14.82-1.11-22.23-1.36-41.59-3.77-83.13-4.43-124.75-.07-5,1.43-6.86,6.23-8.06,10.43-2.6,20.64-6.12,31-9C281.34,132.25,282.3,131.05,281.7,127.91ZM134.26,16.53c1-2.11,5.58-.93,7.43-1,8.08-.12,26.25-.05,26.25-.05s15.71-.06,23.57.05c1.87,0,4.53-1.08,5.45.95s-.68,4.23-2,6.05a34.68,34.68,0,0,1-29.07,14c-10.73-.35-22.25-4-28.7-13C135.9,21.82,133.28,18.65,134.26,16.53Zm-6.37,2.09c2.85-1.33,13.65,21.06,39.4,20.28S201,15.36,202.66,18s-5.52,24.12-35.11,25.23S124.25,20.31,127.89,18.62ZM90.14,134.73c0,3.74-1,4.66-4.75,3.55-8.78-2.6-17.72-4.66-26.48-7.28-2.76-.83-4.91-3-5.06-5.73a76.8,76.8,0,0,0,1.95-7.66c1.51-7.47,2-14.75,3.56-22.06,0,0,.85-5.44,1.52-7.84,4.28-15.5,5.35-32.44,19.65-43.53A131.27,131.27,0,0,1,99.69,32.35c6.07-3.24,12.7-6.93,18.56-9.19,1.59-.62,4.31-2.29,5.9-.61s.22,4.29-1.11,5.89C115.71,37.31,111.1,48,106.35,58a115.34,115.34,0,0,0-9.6,30.27c-1.59,9.79-3.11,19.6-5.57,29.27C89.8,123,90.17,129,90.14,134.73ZM243,293.19c0,.47,0,.89,0,1.29.07,4.61-1.22,6-6.4,6-47.27-.23-95.54-.23-142.81,0-5.65,0-7-1.33-6.73-7.08,2.27-48.43,3.85-96.89,5.45-145.35C93.79,109.49,99.9,71.65,121,38c.9-1.44,2.27-5.13,3.24-6.82s2.56-2.17,3.8-.76C146.23,51,184.21,52.33,203.17,30a1.38,1.38,0,0,1,2.21.16A183,183,0,0,1,216.83,51,131.31,131.31,0,0,1,225,70.76c8.52,26.95,11.92,54.71,12.78,82.92C239.21,200.19,241.08,246.7,243,293.19Zm26.75-161.77c-7.27,1.33-14.08,3.94-21,6.22-4.07,1.33-7.17,1-7.64-4.84-.71-8.64-2.57-17.18-3.57-25.8a244.79,244.79,0,0,0-6.65-33.48c-4.28-16.46-10.36-27-18.91-41.48-1-1.69-8-8.73-6.06-10.85s6.23.92,7.84,1.81c9.37,5.21,19.27,9.09,28.39,14.81,12.72,8,20.27,18.9,24.1,33.76,3.95,15.34,6.5,30.86,9.71,46.29.36,1.75.58,3.52.87,5.28C277.45,128.51,273.85,130.66,269.74,131.42Z"/><path class="cls-3" d="M238.75,154.47c-.86-28.16-4.25-55.88-12.77-82.78A167.31,167.31,0,0,0,217.79,51,179.36,179.36,0,0,0,206.34,30.5c-.5-.77-1.61-1.18-2.21-.48-19,22.31-56.95,20.93-75.11.37-1.24-1.41-3.13-1.78-4.05-.14s-3.39,6.92-4.3,8.36C99.55,72.29,93.79,109.49,92.52,148c-1.6,48.46-3.22,97.92-5.49,146.35-.27,5.74,2.08,6.1,7.73,6.07,47.27-.21,95.54-.21,142.81,0,5.18,0,6.47-1.36,6.4-6,0-.23,0-.47,0-.72C242,247.34,240.17,200.91,238.75,154.47Z"/><path class="cls-4" d="M276.07,118.16c-3.2-15.43-5.92-31.25-9.87-46.59-3.83-14.86-11.38-25.8-24.1-33.76-9.12-5.72-19.53-10.15-28.9-15.35-1.61-.89-5.73-3.21-7.69-1s5.06,9.16,6.06,10.85c8.55,14.44,14.63,25,18.91,41.48a249.36,249.36,0,0,1,6.72,33.79c1,8.63,2.79,16.85,3.5,25.49.48,5.82,3.57,6.17,7.65,4.84,7-2.28,13.77-4.89,21-6.22,4.1-.76,8.35-3.05,7.68-8.42C276.78,121.5,276.43,119.9,276.07,118.16Z"/><path class="cls-4" d="M97.16,88.23A114.12,114.12,0,0,1,106.35,58c4.75-10,9.69-20.63,17-29.49,1.33-1.6,1.89-4.53.37-6.13s-1.91-1.41-3.5-.8c-5.86,2.27-14.9,7.36-21,10.6A131.37,131.37,0,0,0,80.12,44.05c-14.29,11.09-15.37,28-19.65,43.52C59.8,90,59,95.42,59,95.42c-1.39,6.71-2,14.34-3.56,22a75.43,75.43,0,0,1-2,7.66,6.62,6.62,0,0,0,5.06,5.73c8.77,2.63,18.46,5.11,27.24,7.72,3.71,1.1,4.73.18,4.75-3.56,0-5.73-.69-12,.69-17.44C93.64,107.91,95.56,98,97.16,88.23Z"/><path class="cls-3" d="M167,65.88c11.71.83,30.64-13.27,38.29-36.27,1.43-4.31,10.28-3.11,7.06-6.87-2-2.38-13.61-7.47-15.65-7.53-8.58-.26-27.81.23-27.81.23s-25.58-1-32.77-.45c-1.35.1-10.64,3-16.68,7.17-4.24,2.92,5.52,4.69,6.93,9C133.45,52.61,155.32,65.05,167,65.88Z"/><path class="cls-2" d="M118.64,35c3.71-5.56,10.28-15.49,15.32-21.08l3.43.37c-5.86,6.87-14.91,20.6-14.91,20.6Z"/><path class="cls-2" d="M210.82,31.61A163,163,0,0,0,197.13,14l-3.43.36c5.86,6.87,15.17,20.08,15.17,20.08Z"/></svg>